<svg width="1146" height="322" viewBox="0 0 1146 322" fill="none" xmlns="http://www.w3.org/2000/svg">
<g clip-path="url(#clip0_1183_3725)">
<path d="M36.2501 115.46C31.6301 116.71 27.0901 118.74 22.7601 121.5C-0.109884 136.03 -6.87988 166.47 7.66012 189.33C8.96012 191.37 10.4201 193.56 12.3201 195.7L127.28 310.55C138.98 323.78 159.09 325.54 174.48 315.59L73.1601 105.8L36.2501 115.46Z" fill="#D5E05B"/>
<path d="M263.92 12.97L101.17 1.40653e-06C98.3002 -0.0299986 95.6902 0.290001 93.3002 0.640001C66.5002 4.61 47.9202 29.65 51.9002 56.45C52.6502 61.53 54.0902 66.29 56.1602 70.6L73.1602 105.79L298.82 46.76C296.85 27.92 282.05 13.14 263.93 12.95L263.92 12.97Z" fill="#ABE1FA"/>
<path d="M298.94 48.0903C298.92 47.7903 298.9 47.4903 298.87 47.1903C298.86 47.0503 298.83 46.9203 298.82 46.7803L73.1602 105.81L174.48 315.6C175.85 314.71 177.18 313.74 178.47 312.67C181.74 309.88 184.57 306.81 186.79 303.43C187.02 303.07 187.25 302.73 187.47 302.36C187.5 302.32 187.52 302.27 187.54 302.23C188.37 300.79 189.16 299.21 189.86 297.46L296.7 64.9403C298.66 59.7203 299.03 55.1003 299.07 51.4803C299.08 50.3403 299.03 49.2203 298.95 48.1103L298.94 48.0903Z" fill="#AFB4DB"/>
<path d="M409.74 295.78C390.11 297.07 382.19 296.52 374.28 277.31L332.3 161.21L332 160.11C332 158.83 332.9 158.18 334.7 158.18H345.35C360.2 158.18 363.95 162.28 368.77 176.33L396.39 260.18C396.59 260.55 396.89 260.73 397.29 260.73C397.69 260.73 397.99 260.55 398.19 260.18L430.83 160.39C431.43 158.92 432.63 158.19 434.42 158.19L444.97 158.46C455.09 158.46 460.98 163.43 456.93 175.58L414.78 291.73C413.55 294.37 412.76 295.78 409.75 295.78H409.74Z" fill="#AFB4DB"/>
<path d="M1116.75 210.01C1116.75 200.82 1113.83 193.38 1108.04 187.68C1102.25 181.99 1094.56 179.14 1084.98 179.14C1075.4 179.14 1067.91 181.99 1061.92 187.68C1055.93 193.38 1052.94 200.73 1052.94 209.73V295.74C1052.94 297.58 1051.94 298.46 1049.95 298.46H1039.59C1027.56 298.46 1024.2 293.26 1024.2 281.73V174.82C1024.2 163.28 1027.6 158.11 1039.63 158.11H1049.95C1051.94 158.11 1052.94 159.11 1052.94 160.94V170.86C1052.94 171.23 1053.09 171.51 1053.39 171.69C1053.69 171.88 1053.94 171.78 1054.14 171.41C1062.72 161.31 1075.4 156.25 1092.17 156.25C1108.94 156.25 1121.52 160.62 1131.1 169.34C1140.68 178.07 1145.47 189.88 1145.47 204.76V295.73C1145.47 297.57 1144.47 298.45 1142.48 298.45H1132.16C1120.13 298.45 1116.75 293.25 1116.75 281.72V210V210.01Z" fill="#AFB4DB"/>
<path d="M691.9 184.45C682.51 184.82 674.77 187.73 668.68 193.33C662.59 198.94 659.55 206.24 659.55 215.24V295.73C659.55 297.57 658.55 298.57 656.56 298.57H646.17C634.14 298.57 630.78 293.41 630.78 281.87V174.96C630.78 163.42 634.18 158.18 646.21 158.18H656.56C658.55 158.18 659.55 159.1 659.55 160.94V175.55C659.55 176.1 659.7 176.42 660 176.52C660.3 176.61 660.55 176.48 660.75 176.11C669.73 163.25 682.01 156.81 697.58 156.81C703.97 156.81 710.23 156.95 715.42 159.33C716.81 159.88 717.31 160.98 716.92 162.64L714.49 172.5C711.92 185.48 704.75 183.59 691.9 184.46V184.45Z" fill="#AFB4DB"/>
<path d="M600.19 207.88C602.51 223.54 600.74 230.18 581.29 232.9L504.88 243.72C504.09 243.83 503.73 244.26 503.84 244.99C504.08 248.88 504.62 252.01 505.48 254.38C507.68 261.73 512.12 267.47 518.81 271.61C525.5 275.75 533.93 277.81 544.11 277.81C558.88 277.81 573.25 273.18 580.94 263.56C583.52 260.48 586.05 261.03 586.88 262.82C591.91 271.41 591.97 283.93 576.31 293.8C566.72 299.84 554.4 300.97 541.42 300.97C526.84 300.97 514.57 298.03 504.59 292.15C494.6 286.27 487.12 277.91 482.13 267.07C477.34 256.23 474.94 243.09 474.94 227.65C474.94 214.24 476.04 204.04 478.23 197.05C481.82 184.37 489.01 174.36 499.79 167C510.57 159.65 523.64 155.97 539.02 155.97C559.18 155.97 573.15 160.77 583.13 170.05C591.69 178.01 597.6 190.66 600.19 207.87V207.88ZM574.2 210.83C573.84 207.35 573.41 204.58 572.86 202.56C570.86 195.39 566.92 189.65 561.03 185.33C555.14 181.01 547.8 178.85 539.02 178.85C530.24 178.85 523.34 180.83 517.76 184.78C512.17 188.73 508.4 194.02 506.38 200.63C504.09 208.15 503.42 213.71 503.42 220.75C503.52 221.48 503.96 221.86 504.75 221.75L573.14 212.11C573.93 212 574.3 211.56 574.19 210.83H574.2Z" fill="#AFB4DB"/>
<path d="M849.13 207.88C851.45 223.54 849.68 230.18 830.23 232.9L753.82 243.72C753.03 243.83 752.67 244.26 752.78 244.99C753.02 248.88 753.56 252.01 754.42 254.38C756.62 261.73 761.06 267.47 767.75 271.61C774.44 275.75 782.87 277.81 793.05 277.81C807.82 277.81 822.19 273.18 829.88 263.56C832.46 260.48 834.99 261.03 835.82 262.82C840.85 271.41 840.91 283.93 825.25 293.8C815.66 299.84 803.34 300.97 790.36 300.97C775.78 300.97 763.51 298.03 753.53 292.15C743.54 286.27 736.06 277.91 731.07 267.07C726.28 256.23 723.88 243.09 723.88 227.65C723.88 214.24 724.98 204.04 727.17 197.05C730.76 184.37 737.95 174.36 748.73 167C759.51 159.65 772.58 155.97 787.96 155.97C808.12 155.97 822.09 160.77 832.07 170.05C840.63 178.01 846.54 190.66 849.13 207.87V207.88ZM823.14 210.83C822.78 207.35 822.35 204.58 821.8 202.56C819.8 195.39 815.86 189.65 809.97 185.33C804.08 181.01 796.74 178.85 787.96 178.85C779.18 178.85 772.28 180.83 766.7 184.78C761.11 188.73 757.34 194.02 755.32 200.63C753.03 208.15 752.36 213.71 752.36 220.75C752.46 221.48 752.9 221.86 753.69 221.75L822.08 212.11C822.87 212 823.24 211.56 823.13 210.83H823.14Z" fill="#AFB4DB"/>
<path d="M996.51 207.88C998.83 223.54 997.06 230.18 977.61 232.9L901.2 243.72C900.41 243.83 900.05 244.26 900.16 244.99C900.4 248.88 900.94 252.01 901.8 254.38C904 261.73 908.44 267.47 915.13 271.61C921.82 275.75 930.25 277.81 940.43 277.81C955.2 277.81 969.57 273.18 977.26 263.56C979.84 260.48 982.37 261.03 983.2 262.82C988.23 271.41 988.29 283.93 972.63 293.8C963.04 299.84 950.72 300.97 937.74 300.97C923.16 300.97 910.89 298.03 900.91 292.15C890.92 286.27 883.44 277.91 878.45 267.07C873.66 256.23 871.26 243.09 871.26 227.65C871.26 214.24 872.36 204.04 874.55 197.05C878.14 184.37 885.33 174.36 896.11 167C906.89 159.65 919.96 155.97 935.34 155.97C955.5 155.97 969.47 160.77 979.45 170.05C988.01 178.01 993.92 190.66 996.51 207.87V207.88ZM970.51 210.83C970.15 207.35 969.72 204.58 969.17 202.56C967.17 195.39 963.23 189.65 957.34 185.33C951.45 181.01 944.11 178.85 935.33 178.85C926.55 178.85 919.65 180.83 914.07 184.78C908.48 188.73 904.71 194.02 902.69 200.63C900.4 208.15 899.73 213.71 899.73 220.75C899.83 221.48 900.27 221.86 901.06 221.75L969.45 212.11C970.24 212 970.61 211.56 970.5 210.83H970.51Z" fill="#AFB4DB"/>
</g>
<defs>
<clipPath id="clip0_1183_3725">
<rect width="1145.47" height="321.96" fill="white"/>
</clipPath>
</defs>
</svg>
